<?xml version="1.0" encoding="UTF-8"?>
<svg id="Ebene_1" data-name="Ebene 1" xmlns="http://www.w3.org/2000/svg" xmlns:xlink="http://www.w3.org/1999/xlink" viewBox="0 0 508 376.2">
  <defs>
    <style>
      .cls-1 {
        fill: none;
      }

      .cls-2 {
        fill: #1d1d1b;
        stroke: #000;
        stroke-miterlimit: 10;
      }

      .cls-3 {
        opacity: .1;
      }

      .cls-4 {
        clip-path: url(#clippath);
      }
    </style>
    <clipPath id="clippath">
      <rect class="cls-1" width="508" height="376.2"/>
    </clipPath>
  </defs>
  <g class="cls-4">
    <g class="cls-3">
      <polygon points="0 -.09 0 376.2 508 376.2 508 -.09 0 -.09 0 -.09"/>
    </g>
  </g>
  <path class="cls-2" d="M342.38,70.74c.71-.42,1.22-2.96,3.81-1.79,2.54,1.18,1.13,3.43,1.46,4.37.33.94,2.45,1.83,3.2,2.45,11.29,9.83,22.95,19.47,34.53,28.88,2.63-.94,5.55.33,4.52,3.43-.42,1.36-1.83,1.32-1.93,2.26.71,6.73-.85,15.05,0,21.59.28,2.26,4.19,3.34,4.19,4.94,0,1.22-3.86,3.39-4.14,4.99-.19,1.03-.24,9.78,0,10.68.14.52,2.87,1.08,1.88,4.05-.71,2.21-3.1,1.18-4.61,2.02-.42.24-5.32,6.07-6.16,7.06-1.03,1.22-7.57,9.08-7.81,9.64-.47,1.22.75,3.1-.42,4.33-1.93,2.07-3.9-.28-5.17,0-2.68.52-6.73,3.29-9.17,4.56-.52,1.65,1.79,1.98.8,3.43l15.62,3.62c1.03,0,2.3-2.49,4.66-.94,2.12,1.41.89,2.49,1.03,4.14.14,1.74,20.13,22.81,22.58,26.06,2.21-.56,5.13.89,4.37,3.53-.38,1.41-2.12,1.51-2.3,2.68-.33,1.69-.33,14.02,0,15.71.28,1.55,4.7,4.33,4.52,5.32-.94,1.74-4.05,2.92-4.42,4.7-.24,1.13-.24,10.72.14,11.29.56.89,2.63.99,2.21,3.43-.47,2.63-3.15,1.93-4.33,2.78-.19.14-2.26,3.34-2.68,3.95-4.23,6.3-7.86,13.12-12.09,19.38-.56,1.51,1.69,3.72-.89,5.27-1.88,1.13-2.59-.19-3.86-.38-1.51-.24-24.69,10.82-27.99,12.42-.8.38-5.03,2.26-5.17,2.49-.24.38,0,1.32-.28,1.98-1.08,2.49-4.84,1.74-5.46-.85h-45.53c-1.65-.24-4.66,4.75-5.74,4.56l-4.8-5.08c1.41-1.83,2.96-3.39,4.8-4.8,1.08-.19,4.23,4.61,5.79,4.52h44.69c1.27-.19,1.32-2.02,2.59-2.35,1.51-.47,2.63-.05,3.62,1.08l32.27-14.86c1.22-2.45,1.32-4.47,4.7-3.76,4.37-7.53,9.08-14.82,13.59-22.25.42-.66,1.22-1.13,1.51-1.83.38-.89-.94-2.02-.47-3.72.33-1.08,1.88-1.36,1.98-1.83.24-.85.14-10.4-.09-11.43-.47-2.07-3.39-2.96-4.42-4.7-.19-1.03,4.23-3.76,4.52-5.32.33-1.69.33-14.06,0-15.71-.24-1.08-1.51-1.08-1.88-2.26-.47-1.36.47-2.4.05-3.34l-22.15-25.49c-.85-.52-2.21.05-3.29-.42-1.18-.52-.89-2.16-2.49-2.92-4.33-1.98-10.63-2.26-15.19-3.9-1.36,0-3.48,2.35-4.52,3.29-.61-1.18-5.03-4-5.13-4.8-.09-.66.94-1.03,1.13-1.69.33-1.08-.33-3.53.47-4.09.47-.33,8.33-.99,7.67,1.46,1.83-1.88,7.15-2.68,8.75-4.09,1.27-1.18.19-5.03,4.75-3.57l14.39-17.45c-.05-1.13-.56-1.83-.19-3.06.47-1.51,2.21-1.41,2.35-1.93.24-.99.14-8.98,0-10.25-.38-2.3-4.61-3.9-4.47-5.32.19-1.93,4.14-3.2,4.47-5.03v-22.06c-2.35-.52-2.73-2.02-2.3-4.23l-37.49-31.23c-.8-.28-1.65.42-2.92,0-1.36-.42-1.32-1.83-2.26-1.93-9.69-1.13-21.59.94-31.51,0-1.74.24-3.9,3.15-4.94,4.56l-5.13-5.22c-.14-.71,4.05-4.28,4.8-5.08l4.94,4.09,32.41-.09h0l.09.09ZM302.4,72.77c.24.28,2.73,2.21,2.92,2.16.33-.05,3.2-2.96,3.15-3.43l-3.43-3.15c-.94,1.18-4.09,2.73-2.63,4.42h0ZM385.75,134.81c-.71.61-2.16,1.18-1.83,2.35.09.47,2.96,3.25,3.43,3.15l3.57-3.48-3.53-3.43c-.75.28-1.13.94-1.65,1.41h0ZM352.59,183.07l-3.53,3.9c.8.24,3.29,3.1,3.53,3.1s3.01-2.73,3.48-3.15l-3.48-3.86h0ZM403.91,249.86c.56-.52,2.45-1.55,2.3-2.35l-3.48-3.57-3.53,3.9,3.95,3.1c.28-.09.47-.85.75-1.08h0ZM291.77,310.21c-1.08,1.32-2.16,2.49-3.57,3.53l3.86,3.48,3.57-3.48-3.9-3.48h0l.05-.05Z"/>
  <path class="cls-2" d="M291.16,243.84c.14.24,1.41.56,1.83,1.03,1.98,2.12.89,5.69-1.98,6.35v28.97c.28,1.93,3.01,2.68,1.88,5.13-2.12,4.61-9.03-1.08-3.29-4.14l.24-29.96c-4.52-1.18-4.23-6.02,0-7.57l-.24-27.47c-4.56-1.74-.85-7.95,2.49-4.99,3.06,2.78-.85,4.47-1.03,5.6l.09,27.05h0ZM292.95,247.56c0-1.41-1.18-2.59-2.59-2.59s-2.59,1.18-2.59,2.59,1.18,2.59,2.59,2.59,2.59-1.18,2.59-2.59h0Z"/>
  <path class="cls-2" d="M277.71,139.42c-.56.66-2.3.75-2.35,1.98.61,3.25-.89,17.83.19,19.66.33.52,1.51.66,1.98,1.79,1.79,4-5.17,5.83-5.5,1.32-.14-2.12,1.98-2.3,2.12-3.29.75-6.16-.66-13.88,0-20.23-4.09-1.46-3.76-6.02,0-7.57v-30.57c-.14-1.13-3.86-2.45-1.27-5.36,2.16-2.45,6.3.47,4.33,3.53-.89,1.36-1.65.89-1.88,3.1-.89,8.98.71,19.47,0,28.6.28,1.36,3.43,1.88,3.25,4.84,0,.42-.56,1.93-.85,2.26h0v-.05ZM277.52,136.88c0-1.46-1.18-2.63-2.63-2.63s-2.63,1.18-2.63,2.63,1.18,2.63,2.63,2.63,2.63-1.18,2.63-2.63h0Z"/>
  <path class="cls-2" d="M243.89,180.95c.09.14-.09,1.27,0,1.65l12.37-5.41c-.89-5.17,6.91-4.66,5.22.47-1.08,3.39-4.61.47-5.22.56-3.25.47-8.42,4.75-11.99,5.41-.75.61-.38,2.49-.38,3.48l23.05,6.16c1.41.09,1.36-1.55,3.53-1.08,6.07,1.27-1.13,10.58-3.62,2.4-2.68-.61-22.15-7.06-22.95-6.21-.09.09.09,1.65,0,1.65h-7.06v-9.13c.99.19,6.82-.28,7.06,0h0v.05ZM243.09,182.6h-5.41v4.99h5.41v-4.99h0Z"/>
  <path class="cls-2" d="M195.3,68.86c.61.52.61,2.02,1.55,1.98h46.85c.89-.09.8-1.08,1.69-1.65,2.92-1.74,5.97,2.45,3.1,4.75-2.54,2.02-3.57-1.22-5.6-1.51h-46.33c-1.69,5.13-9.36,2.63-7.34-2.3.94-2.21,4.33-2.87,6.11-1.32h0l-.05.05ZM195.3,71.64c0-1.46-1.18-2.59-2.59-2.59s-2.59,1.18-2.59,2.59,1.18,2.59,2.59,2.59,2.59-1.18,2.59-2.59h0Z"/>
  <path class="cls-2" d="M209.17,313.41l50.66.09c1.32-.14.66-2.54,3.29-2.54,6.16,0,1.36,10.16-2.68,3.57l-51.08-.24c-1.32,4-6.26,4.7-7.48.33-1.32-4.7,6.4-6.73,7.24-1.22h.05ZM208,313.74c0-1.41-1.18-2.59-2.59-2.59s-2.59,1.13-2.59,2.59,1.13,2.59,2.59,2.59,2.59-1.18,2.59-2.59h0Z"/>
  <path class="cls-2" d="M230.11,225.17c-.38.47-1.83.71-1.98,1.22-.14.56-.14,6.35,0,6.87.19.75,3.62.33,3.34,4.19-.24,2.96-2.92,2.73-3.29,3.81-.24.75-.19,7.9.14,8.42.33.52,1.69.85,2.07,1.65,2.02,4.37-5.22,6.02-5.22,1.46,0-2.45,1.98-2.4,2.12-2.96.14-.52.14-8.56,0-8.98-.05-.19-2.68-.61-3.25-2.63-.99-3.53,3.15-4.52,3.25-4.94.14-.66.14-5.83,0-6.54-.24-1.36-3.43-1.6-1.79-5.08,1.55-3.25,7.2.33,4.56,3.53h.05ZM230.39,237.25c0-1.41-1.13-2.54-2.54-2.54s-2.54,1.13-2.54,2.54,1.13,2.54,2.54,2.54,2.54-1.13,2.54-2.54h0Z"/>
  <path class="cls-2" d="M202.54,260.02c.47.33,10.87.28,11.67.09.61-.14.56-2.21,2.96-2.12,4.99.19,2.4,8.28-2.02,4.94-.71-.52-.71-1.41-1.69-1.6-.85-.14-10.11-.19-10.72,0-.47.14-.28,3.39-4.05,3.1-4.8-.33-4.42-8.47,1.41-7.15,2.07.47,2.07,2.54,2.45,2.73h0ZM201.65,260.77c0-1.46-1.18-2.63-2.63-2.63s-2.63,1.18-2.63,2.63,1.18,2.63,2.63,2.63,2.63-1.18,2.63-2.63h0Z"/>
  <path class="cls-2" d="M202.54,214.02c.42.38,9.97.24,10.91.05.85-.14,2.07-2.45,3.72-2.45,3.43,0,3.86,6.11-.42,5.83-2.07-.14-1.93-2.26-3.29-2.54-.85-.14-10.11-.19-10.72,0-.42.14-.24,3.62-4.19,3.39-6.4-.47-1.69-12.04,3.53-5.6.33.42.33,1.27.47,1.36h0v-.05ZM201.6,214.58c0-1.41-1.18-2.59-2.59-2.59s-2.59,1.18-2.59,2.59,1.18,2.59,2.59,2.59,2.59-1.18,2.59-2.59h0Z"/>
  <path class="cls-2" d="M106.82,305.6c1.65,1.93,3.62,3.39,5.41,5.17.94.94,1.36,2.54,2.87,2.73l-8.28,8.28v-16.13h0v-.05ZM107.62,308.52v10.77c2.26-1.55,3.81-3.72,5.79-5.6-.66-.47-5.27-5.79-5.79-5.17h0Z"/>
  <path class="cls-2" d="M175.54,110.96v7.43h-7.43v-7.43h7.43ZM169.33,112.23v4.99h4.99v-4.99h-4.99Z"/>
  <path class="cls-2" d="M158.14,120.93v7.43h-7.43v-7.43h7.43ZM156.92,122.16h-4.99v5.41h4.99v-5.41h0Z"/>
  <path class="cls-2" d="M139.09,257.15v7.43h-6.82s-.61-.56-.61-.61v-6.82h7.43ZM137.87,258h-4.99v5.41h4.99v-5.41h0Z"/>
  <path class="cls-2" d="M114.25,67.92v7.43h-6.82s-.61-.56-.61-.61v-6.21s.56-.61.61-.61h6.82ZM113.45,69.14h-5.41v4.99h5.41v-4.99h0Z"/>
  <path class="cls-2" d="M175.54,283.26v7.06h-7.43v-7.06h7.43ZM174.32,284.48h-4.99v4.99h4.99v-4.99h0Z"/>
  <path class="cls-2" d="M130.43,161.9h7.06v7.48h-7.06v-7.43h0v-.05ZM136.64,163.17h-5.41v4.99h5.41v-4.99h0Z"/>
  <path class="cls-2" d="M130.43,210.77h7.06v7.43h-7.06v-7.43h0ZM136.64,212.04h-5.41c.09,4.14-1.22,6.07,3.95,5.41,2.54-.33,1.08-3.43,1.41-5.41h.05Z"/>
  <path class="cls-2" d="M215.19,133.68c-.38.38-1.46.24-1.6.8-.14.47-.09,6.02,0,6.49.14.56,3.39.56,2.96,4.66-.24,2.35-2.87,2.63-2.96,2.92-.19.66,0,7.62.24,8.04.61.99,2.16.38,1.88,3.1-.33,3.25-5.46,3.25-5.46-.42,0-2.45,1.98-2.4,2.12-2.96.14-.47.14-7.34,0-7.71-.05-.24-3.1-.99-3.34-3.39-.28-2.92,3.06-3.53,3.29-4.94.09-.61.14-5.32,0-5.74-.09-.38-2.45-.09-2.12-3.39.28-3.01,4.94-2.87,5.41-.38.14.71,0,2.49-.52,3.01h0l.09-.09ZM215.57,144.78c0-1.41-1.13-2.54-2.54-2.54s-2.54,1.13-2.54,2.54,1.13,2.54,2.54,2.54,2.54-1.13,2.54-2.54h0Z"/>
  <path class="cls-2" d="M191.35,124.18c.33.24,7.29.24,7.95.09.56-.14,1.65-3.81,4.89-1.46,3.01,2.16-.42,6.02-3.34,4.56-.61-.33-.75-1.36-1.22-1.65-.42-.28-7.24-.42-8-.24-.56.14-.56,3.39-4.66,2.96-5.08-.56-3.29-8.14,1.13-7.43,2.59.42,2.92,2.92,3.29,3.2h0l-.05-.05ZM189.09,127c1.74-1.41,1.32-4.56-1.41-4.7-4.7-.28-2.12,7.57,1.41,4.7h0Z"/>
  <path class="cls-2" d="M190.31,162.89c.47.42.75,1.83,1.27,1.93.75.19,7.53.05,8-.24.89-.56.71-2.12,3.06-1.83,3.76.38,3.2,5.74-.38,5.79-1.79,0-2.59-2.35-2.96-2.45-.56-.14-7.15-.14-7.71,0-.28.09-1.22,3.57-4.42,3.15-6.87-.89-1.65-10.77,3.2-6.3h0l-.05-.05ZM190.12,165.62c0-1.41-1.13-2.54-2.54-2.54s-2.54,1.13-2.54,2.54,1.13,2.54,2.54,2.54,2.54-1.13,2.54-2.54h0Z"/>
</svg>